<svg xmlns="http://www.w3.org/2000/svg" xmlns:xlink="http://www.w3.org/1999/xlink" contentStyleType="text/css" data-diagram-type="SEQUENCE" height="1061px" preserveAspectRatio="none" style="width:1510px;height:1061px;background:#FFFFFF;" version="1.1" viewBox="0 0 1510 1061" width="1510px" zoomAndPan="magnify"><defs/><g><rect fill="#FFFFFF" height="611.355" style="stroke:#000000;stroke-width:1;" width="1488.0996" x="15" y="351.4092"/><rect fill="#FFFFFF" height="533.957" style="stroke:none;stroke-width:1;" width="1488.0996" x="15" y="428.8071"/><g><title>User</title><rect fill="#000000" fill-opacity="0.00000" height="896.7495" width="8" x="39.9277" y="83.0146"/><line style="stroke:#000000;stroke-width:1;" x1="43" x2="43" y1="83.0146" y2="979.7642"/></g><g><title>Web UI</title><rect fill="#000000" fill-opacity="0.00000" height="896.7495" width="8" x="261.5747" y="83.0146"/><line style="stroke:#000000;stroke-width:1;" x1="264.5913" x2="264.5913" y1="83.0146" y2="979.7642"/></g><g><title>API Layer</title><rect fill="#000000" fill-opacity="0.00000" height="896.7495" width="8" x="464.4453" y="83.0146"/><line style="stroke:#000000;stroke-width:1;" x1="467.6313" x2="467.6313" y1="83.0146" y2="979.7642"/></g><g><title>Request Handler</title><rect fill="#000000" fill-opacity="0.00000" height="896.7495" width="8" x="604.6582" y="83.0146"/><line style="stroke:#000000;stroke-width:1;" x1="608.4604" x2="608.4604" y1="83.0146" y2="979.7642"/></g><g><title>Access Policy</title><rect fill="#000000" fill-opacity="0.00000" height="896.7495" width="8" x="786.6006" y="83.0146"/><line style="stroke:#000000;stroke-width:1;" x1="790.4956" x2="790.4956" y1="83.0146" y2="979.7642"/></g><g><title>Orchestrator</title><rect fill="#000000" fill-opacity="0.00000" height="896.7495" width="8" x="921.04" y="83.0146"/><line style="stroke:#000000;stroke-width:1;" x1="924.7056" x2="924.7056" y1="83.0146" y2="979.7642"/></g><g><title>LLM Server</title><rect fill="#000000" fill-opacity="0.00000" height="896.7495" width="8" x="1255.5293" y="83.0146"/><line style="stroke:#000000;stroke-width:1;" x1="1259.1338" x2="1259.1338" y1="83.0146" y2="979.7642"/></g><g><title>Vector DB</title><rect fill="#000000" fill-opacity="0.00000" height="896.7495" width="8" x="1360.1743" y="83.0146"/><line style="stroke:#000000;stroke-width:1;" x1="1363.9248" x2="1363.9248" y1="83.0146" y2="979.7642"/></g><g><title>User Store</title><rect fill="#000000" fill-opacity="0.00000" height="896.7495" width="8" x="1448.7617" y="83.0146"/><line style="stroke:#000000;stroke-width:1;" x1="1452.4238" x2="1452.4238" y1="83.0146" y2="979.7642"/></g><g class="participant participant-head" data-participant="USR"><text fill="#000000" font-family="Verdana" font-size="14" lengthAdjust="spacing" textLength="31.8555" x="25" y="80.0752">User</text><ellipse cx="43.9277" cy="14" fill="#FFFFFF" rx="8" ry="8" style="stroke:#000000;stroke-width:1;"/><path d="M43.9277,22 L43.9277,49 M30.9277,30 L56.9277,30 M43.9277,49 L30.9277,64 M43.9277,49 L56.9277,64" fill="none" style="stroke:#000000;stroke-width:1;"/></g><g class="participant participant-tail" data-participant="USR"><text fill="#000000" font-family="Verdana" font-size="14" lengthAdjust="spacing" textLength="31.8555" x="25" y="992.8394">User</text><ellipse cx="43.9277" cy="1004.7788" fill="#FFFFFF" rx="8" ry="8" style="stroke:#000000;stroke-width:1;"/><path d="M43.9277,1012.7788 L43.9277,1039.7788 M30.9277,1020.7788 L56.9277,1020.7788 M43.9277,1039.7788 L30.9277,1054.7788 M43.9277,1039.7788 L56.9277,1054.7788" fill="none" style="stroke:#000000;stroke-width:1;"/></g><g class="participant participant-head" data-participant="UI"><rect fill="#FFFFFF" height="31.0146" rx="2.5" ry="2.5" style="stroke:#000000;stroke-width:1;" width="65.9668" x="232.5913" y="51"/><text fill="#000000" font-family="Verdana" font-size="14" lengthAdjust="spacing" textLength="51.9668" x="239.5913" y="72.0752">Web UI</text></g><g class="participant participant-tail" data-participant="UI"><rect fill="#FFFFFF" height="31.0146" rx="2.5" ry="2.5" style="stroke:#000000;stroke-width:1;" width="65.9668" x="232.5913" y="978.7642"/><text fill="#000000" font-family="Verdana" font-size="14" lengthAdjust="spacing" textLength="51.9668" x="239.5913" y="999.8394">Web UI</text></g><g class="participant participant-head" data-participant="API"><rect fill="#FFFFFF" height="31.0146" rx="2.5" ry="2.5" style="stroke:#000000;stroke-width:1;" width="81.6279" x="427.6313" y="51"/><text fill="#000000" font-family="Verdana" font-size="14" lengthAdjust="spacing" textLength="67.6279" x="434.6313" y="72.0752">API Layer</text></g><g class="participant participant-tail" data-participant="API"><rect fill="#FFFFFF" height="31.0146" rx="2.5" ry="2.5" style="stroke:#000000;stroke-width:1;" width="81.6279" x="427.6313" y="978.7642"/><text fill="#000000" font-family="Verdana" font-size="14" lengthAdjust="spacing" textLength="67.6279" x="434.6313" y="999.8394">API Layer</text></g><g class="participant participant-head" data-participant="RH"><rect fill="#FFFFFF" height="31.0146" rx="2.5" ry="2.5" style="stroke:#000000;stroke-width:1;" width="130.3955" x="543.4604" y="51"/><text fill="#000000" font-family="Verdana" font-size="14" lengthAdjust="spacing" textLength="116.3955" x="550.4604" y="72.0752">Request Handler</text></g><g class="participant participant-tail" data-participant="RH"><rect fill="#FFFFFF" height="31.0146" rx="2.5" ry="2.5" style="stroke:#000000;stroke-width:1;" width="130.3955" x="543.4604" y="978.7642"/><text fill="#000000" font-family="Verdana" font-size="14" lengthAdjust="spacing" textLength="116.3955" x="550.4604" y="999.8394">Request Handler</text></g><g class="participant participant-head" data-participant="POL"><rect fill="#FFFFFF" height="31.0146" rx="2.5" ry="2.5" style="stroke:#000000;stroke-width:1;" width="106.21" x="737.4956" y="51"/><text fill="#000000" font-family="Verdana" font-size="14" lengthAdjust="spacing" textLength="92.21" x="744.4956" y="72.0752">Access Policy</text></g><g class="participant participant-tail" data-participant="POL"><rect fill="#FFFFFF" height="31.0146" rx="2.5" ry="2.5" style="stroke:#000000;stroke-width:1;" width="106.21" x="737.4956" y="978.7642"/><text fill="#000000" font-family="Verdana" font-size="14" lengthAdjust="spacing" textLength="92.21" x="744.4956" y="999.8394">Access Policy</text></g><g class="participant participant-head" data-participant="ORCH"><rect fill="#FFFFFF" height="31.0146" rx="2.5" ry="2.5" style="stroke:#000000;stroke-width:1;" width="102.6689" x="873.7056" y="51"/><text fill="#000000" font-family="Verdana" font-size="14" lengthAdjust="spacing" textLength="88.6689" x="880.7056" y="72.0752">Orchestrator</text></g><g class="participant participant-tail" data-participant="ORCH"><rect fill="#FFFFFF" height="31.0146" rx="2.5" ry="2.5" style="stroke:#000000;stroke-width:1;" width="102.6689" x="873.7056" y="978.7642"/><text fill="#000000" font-family="Verdana" font-size="14" lengthAdjust="spacing" textLength="88.6689" x="880.7056" y="999.8394">Orchestrator</text></g><g class="participant participant-head" data-participant="LLM"><rect fill="#FFFFFF" height="31.0146" rx="2.5" ry="2.5" style="stroke:#000000;stroke-width:1;" width="92.791" x="1213.1338" y="51"/><text fill="#000000" font-family="Verdana" font-size="14" lengthAdjust="spacing" textLength="78.791" x="1220.1338" y="72.0752">LLM Server</text></g><g class="participant participant-tail" data-participant="LLM"><rect fill="#FFFFFF" height="31.0146" rx="2.5" ry="2.5" style="stroke:#000000;stroke-width:1;" width="92.791" x="1213.1338" y="978.7642"/><text fill="#000000" font-family="Verdana" font-size="14" lengthAdjust="spacing" textLength="78.791" x="1220.1338" y="999.8394">LLM Server</text></g><g class="participant participant-head" data-participant="VDB"><text fill="#000000" font-family="Verdana" font-size="14" lengthAdjust="spacing" textLength="70.499" x="1325.9248" y="80.0752">Vector DB</text><path d="M1346.1743,30 C1346.1743,20 1364.1743,20 1364.1743,20 C1364.1743,20 1382.1743,20 1382.1743,30 L1382.1743,56 C1382.1743,66 1364.1743,66 1364.1743,66 C1364.1743,66 1346.1743,66 1346.1743,56 L1346.1743,30" fill="#FFFFFF" style="stroke:#000000;stroke-width:1.5;"/><path d="M1346.1743,30 C1346.1743,40 1364.1743,40 1364.1743,40 C1364.1743,40 1382.1743,40 1382.1743,30" fill="none" style="stroke:#000000;stroke-width:1.5;"/></g><g class="participant participant-tail" data-participant="VDB"><text fill="#000000" font-family="Verdana" font-size="14" lengthAdjust="spacing" textLength="70.499" x="1325.9248" y="992.8394">Vector DB</text><path d="M1346.1743,1005.7788 C1346.1743,995.7788 1364.1743,995.7788 1364.1743,995.7788 C1364.1743,995.7788 1382.1743,995.7788 1382.1743,1005.7788 L1382.1743,1031.7788 C1382.1743,1041.7788 1364.1743,1041.7788 1364.1743,1041.7788 C1364.1743,1041.7788 1346.1743,1041.7788 1346.1743,1031.7788 L1346.1743,1005.7788" fill="#FFFFFF" style="stroke:#000000;stroke-width:1.5;"/><path d="M1346.1743,1005.7788 C1346.1743,1015.7788 1364.1743,1015.7788 1364.1743,1015.7788 C1364.1743,1015.7788 1382.1743,1015.7788 1382.1743,1005.7788" fill="none" style="stroke:#000000;stroke-width:1.5;"/></g><g class="participant participant-head" data-participant="UDB"><text fill="#000000" font-family="Verdana" font-size="14" lengthAdjust="spacing" textLength="74.6758" x="1412.4238" y="80.0752">User Store</text><path d="M1434.7617,30 C1434.7617,20 1452.7617,20 1452.7617,20 C1452.7617,20 1470.7617,20 1470.7617,30 L1470.7617,56 C1470.7617,66 1452.7617,66 1452.7617,66 C1452.7617,66 1434.7617,66 1434.7617,56 L1434.7617,30" fill="#FFFFFF" style="stroke:#000000;stroke-width:1.5;"/><path d="M1434.7617,30 C1434.7617,40 1452.7617,40 1452.7617,40 C1452.7617,40 1470.7617,40 1470.7617,30" fill="none" style="stroke:#000000;stroke-width:1.5;"/></g><g class="participant participant-tail" data-participant="UDB"><text fill="#000000" font-family="Verdana" font-size="14" lengthAdjust="spacing" textLength="74.6758" x="1412.4238" y="992.8394">User Store</text><path d="M1434.7617,1005.7788 C1434.7617,995.7788 1452.7617,995.7788 1452.7617,995.7788 C1452.7617,995.7788 1470.7617,995.7788 1470.7617,1005.7788 L1470.7617,1031.7788 C1470.7617,1041.7788 1452.7617,1041.7788 1452.7617,1041.7788 C1452.7617,1041.7788 1434.7617,1041.7788 1434.7617,1031.7788 L1434.7617,1005.7788" fill="#FFFFFF" style="stroke:#000000;stroke-width:1.5;"/><path d="M1434.7617,1005.7788 C1434.7617,1015.7788 1452.7617,1015.7788 1452.7617,1015.7788 C1452.7617,1015.7788 1470.7617,1015.7788 1470.7617,1005.7788" fill="none" style="stroke:#000000;stroke-width:1.5;"/></g><g class="message" data-participant-1="USR" data-participant-2="UI"><polygon fill="#000000" points="253.5747,110.814,263.5747,114.814,253.5747,118.814,257.5747,114.814" style="stroke:#000000;stroke-width:1;"/><line style="stroke:#000000;stroke-width:1;" x1="43.9277" x2="259.5747" y1="114.814" y2="114.814"/><text fill="#000000" font-family="Verdana" font-size="13" lengthAdjust="spacing" textLength="106.5898" x="50.9277" y="110.0845">submit message</text></g><g class="message" data-participant-1="UI" data-participant-2="API"><polygon fill="#000000" points="456.4453,140.6133,466.4453,144.6133,456.4453,148.6133,460.4453,144.6133" style="stroke:#000000;stroke-width:1;"/><line style="stroke:#000000;stroke-width:1;" x1="265.5747" x2="462.4453" y1="144.6133" y2="144.6133"/><text fill="#000000" font-family="Verdana" font-size="13" lengthAdjust="spacing" textLength="178.8706" x="272.5747" y="139.8838">POST /chat  (Bearer token)</text></g><g class="message" data-participant-1="API" data-participant-2="API"><line style="stroke:#000000;stroke-width:1;" x1="468.4453" x2="510.4453" y1="174.4126" y2="174.4126"/><line style="stroke:#000000;stroke-width:1;" x1="510.4453" x2="510.4453" y1="174.4126" y2="187.4126"/><line style="stroke:#000000;stroke-width:1;" x1="469.4453" x2="510.4453" y1="187.4126" y2="187.4126"/><polygon fill="#000000" points="479.4453,183.4126,469.4453,187.4126,479.4453,191.4126,475.4453,187.4126" style="stroke:#000000;stroke-width:1;"/><text fill="#000000" font-family="Verdana" font-size="13" lengthAdjust="spacing" textLength="82.7544" x="475.4453" y="169.6831">validate JWT</text></g><g class="message" data-participant-1="API" data-participant-2="RH"><polygon fill="#000000" points="596.6582,213.2119,606.6582,217.2119,596.6582,221.2119,600.6582,217.2119" style="stroke:#000000;stroke-width:1;"/><line style="stroke:#000000;stroke-width:1;" x1="468.4453" x2="602.6582" y1="217.2119" y2="217.2119"/><text fill="#000000" font-family="Verdana" font-size="13" lengthAdjust="spacing" textLength="116.2129" x="475.4453" y="212.4824">ExecutionRequest</text></g><g class="message" data-participant-1="RH" data-participant-2="POL"><polygon fill="#000000" points="778.6006,243.0112,788.6006,247.0112,778.6006,251.0112,782.6006,247.0112" style="stroke:#000000;stroke-width:1;"/><line style="stroke:#000000;stroke-width:1;" x1="608.6582" x2="784.6006" y1="247.0112" y2="247.0112"/><text fill="#000000" font-family="Verdana" font-size="13" lengthAdjust="spacing" textLength="147.729" x="615.6582" y="242.2817">check(user, collection)</text></g><g class="message" data-participant-1="POL" data-participant-2="UDB"><polygon fill="#000000" points="1440.7617,272.8105,1450.7617,276.8105,1440.7617,280.8105,1444.7617,276.8105" style="stroke:#000000;stroke-width:1;"/><line style="stroke:#000000;stroke-width:1;" x1="790.6006" x2="1446.7617" y1="276.8105" y2="276.8105"/><text fill="#000000" font-family="Verdana" font-size="13" lengthAdjust="spacing" textLength="200.9097" x="797.6006" y="272.0811">load roles + classification level</text></g><g class="message" data-participant-1="UDB" data-participant-2="POL"><polygon fill="#000000" points="801.6006,302.6099,791.6006,306.6099,801.6006,310.6099,797.6006,306.6099" style="stroke:#000000;stroke-width:1;"/><line style="stroke:#000000;stroke-width:1;stroke-dasharray:2.0,2.0;" x1="795.6006" x2="1451.7617" y1="306.6099" y2="306.6099"/><text fill="#000000" font-family="Verdana" font-size="13" lengthAdjust="spacing" textLength="77.6064" x="807.6006" y="301.8804">permissions</text></g><g class="message" data-participant-1="POL" data-participant-2="RH"><polygon fill="#000000" points="619.6582,332.4092,609.6582,336.4092,619.6582,340.4092,615.6582,336.4092" style="stroke:#000000;stroke-width:1;"/><line style="stroke:#000000;stroke-width:1;stroke-dasharray:2.0,2.0;" x1="613.6582" x2="789.6006" y1="336.4092" y2="336.4092"/><text fill="#000000" font-family="Verdana" font-size="13" lengthAdjust="spacing" textLength="157.9424" x="625.6582" y="331.6797">ALLOW / FILTER / DENY</text></g><path d="M15,351.4092 L79.0493,351.4092 L79.0493,359.2085 L69.0493,369.2085 L15,369.2085 L15,351.4092" fill="#FFFFFF" style="stroke:#000000;stroke-width:1;"/><rect fill="none" height="611.355" style="stroke:#000000;stroke-width:1;" width="1488.0996" x="15" y="351.4092"/><text fill="#000000" font-family="Verdana" font-size="13" font-weight="bold" lengthAdjust="spacing" textLength="19.0493" x="30" y="365.479">alt</text><text fill="#000000" font-family="Verdana" font-size="11" font-weight="bold" lengthAdjust="spacing" textLength="46.0195" x="94.0493" y="364.4683">[DENY]</text><g class="message" data-participant-1="RH" data-participant-2="API"><polygon fill="#000000" points="479.4453,387.0078,469.4453,391.0078,479.4453,395.0078,475.4453,391.0078" style="stroke:#000000;stroke-width:1;"/><line style="stroke:#000000;stroke-width:1;stroke-dasharray:2.0,2.0;" x1="473.4453" x2="607.6582" y1="391.0078" y2="391.0078"/><text fill="#000000" font-family="Verdana" font-size="13" lengthAdjust="spacing" textLength="94.1104" x="485.4453" y="386.2783">403 Forbidden</text></g><g class="message" data-participant-1="API" data-participant-2="UI"><polygon fill="#000000" points="276.5747,416.8071,266.5747,420.8071,276.5747,424.8071,272.5747,420.8071" style="stroke:#000000;stroke-width:1;"/><line style="stroke:#000000;stroke-width:1;stroke-dasharray:2.0,2.0;" x1="270.5747" x2="467.4453" y1="420.8071" y2="420.8071"/><text fill="#000000" font-family="Verdana" font-size="13" lengthAdjust="spacing" textLength="24.7939" x="282.5747" y="416.0776">403</text></g><line style="stroke:#000000;stroke-width:1;stroke-dasharray:2.0,2.0;" x1="15" x2="1503.0996" y1="429.8071" y2="429.8071"/><text fill="#000000" font-family="Verdana" font-size="11" font-weight="bold" lengthAdjust="spacing" textLength="120.6025" x="20" y="440.8662">[ALLOW or FILTER]</text><g class="message" data-participant-1="RH" data-participant-2="ORCH"><polygon fill="#000000" points="913.04,461.9751,923.04,465.9751,913.04,469.9751,917.04,465.9751" style="stroke:#000000;stroke-width:1;"/><line style="stroke:#000000;stroke-width:1;" x1="608.6582" x2="919.04" y1="465.9751" y2="465.9751"/><text fill="#000000" font-family="Verdana" font-size="13" lengthAdjust="spacing" textLength="183.5107" x="615.6582" y="461.2456">execute(rag_chat workflow)</text></g><g class="message" data-participant-1="ORCH" data-participant-2="LLM"><polygon fill="#000000" points="1247.5293,491.7744,1257.5293,495.7744,1247.5293,499.7744,1251.5293,495.7744" style="stroke:#000000;stroke-width:1;"/><line style="stroke:#000000;stroke-width:1;" x1="925.04" x2="1253.5293" y1="495.7744" y2="495.7744"/><text fill="#000000" font-family="Verdana" font-size="13" lengthAdjust="spacing" textLength="150.2808" x="932.04" y="491.0449">embed(user_message)</text></g><g class="message" data-participant-1="LLM" data-participant-2="ORCH"><polygon fill="#000000" points="936.04,521.5737,926.04,525.5737,936.04,529.5737,932.04,525.5737" style="stroke:#000000;stroke-width:1;"/><line style="stroke:#000000;stroke-width:1;stroke-dasharray:2.0,2.0;" x1="930.04" x2="1258.5293" y1="525.5737" y2="525.5737"/><text fill="#000000" font-family="Verdana" font-size="13" lengthAdjust="spacing" textLength="87.623" x="942.04" y="520.8442">dense_vector</text></g><g class="message" data-participant-1="ORCH" data-participant-2="ORCH"><line style="stroke:#000000;stroke-width:1;" x1="925.04" x2="967.04" y1="555.373" y2="555.373"/><line style="stroke:#000000;stroke-width:1;" x1="967.04" x2="967.04" y1="555.373" y2="568.373"/><line style="stroke:#000000;stroke-width:1;" x1="926.04" x2="967.04" y1="568.373" y2="568.373"/><polygon fill="#000000" points="936.04,564.373,926.04,568.373,936.04,572.373,932.04,568.373" style="stroke:#000000;stroke-width:1;"/><text fill="#000000" font-family="Verdana" font-size="13" lengthAdjust="spacing" textLength="299.6855" x="932.04" y="550.6436">sparse_encode(user_message)  [BM25, local]</text></g><g class="message" data-participant-1="ORCH" data-participant-2="VDB"><polygon fill="#000000" points="1352.1743,609.9717,1362.1743,613.9717,1352.1743,617.9717,1356.1743,613.9717" style="stroke:#000000;stroke-width:1;"/><line style="stroke:#000000;stroke-width:1;" x1="925.04" x2="1358.1743" y1="613.9717" y2="613.9717"/><text fill="#000000" font-family="Verdana" font-size="13" lengthAdjust="spacing" textLength="205.2896" x="932.04" y="593.4429">hybrid_search(dense + sparse)</text><text fill="#000000" font-family="Verdana" font-size="13" lengthAdjust="spacing" textLength="207.2192" x="932.04" y="609.2422">[+ classification filter if FILTER]</text></g><g class="message" data-participant-1="VDB" data-participant-2="ORCH"><polygon fill="#000000" points="936.04,639.771,926.04,643.771,936.04,647.771,932.04,643.771" style="stroke:#000000;stroke-width:1;"/><line style="stroke:#000000;stroke-width:1;stroke-dasharray:2.0,2.0;" x1="930.04" x2="1363.1743" y1="643.771" y2="643.771"/><text fill="#000000" font-family="Verdana" font-size="13" lengthAdjust="spacing" textLength="95.6084" x="942.04" y="639.0415">ranked chunks</text></g><g class="message" data-participant-1="ORCH" data-participant-2="ORCH"><line style="stroke:#000000;stroke-width:1;" x1="925.04" x2="967.04" y1="673.5703" y2="673.5703"/><line style="stroke:#000000;stroke-width:1;" x1="967.04" x2="967.04" y1="673.5703" y2="686.5703"/><line style="stroke:#000000;stroke-width:1;" x1="926.04" x2="967.04" y1="686.5703" y2="686.5703"/><polygon fill="#000000" points="936.04,682.5703,926.04,686.5703,936.04,690.5703,932.04,686.5703" style="stroke:#000000;stroke-width:1;"/><text fill="#000000" font-family="Verdana" font-size="13" lengthAdjust="spacing" textLength="229.5186" x="932.04" y="668.8408">augment(user_message + chunks)</text></g><g class="message" data-participant-1="ORCH" data-participant-2="UDB"><polygon fill="#000000" points="1440.7617,712.3696,1450.7617,716.3696,1440.7617,720.3696,1444.7617,716.3696" style="stroke:#000000;stroke-width:1;"/><line style="stroke:#000000;stroke-width:1;" x1="925.04" x2="1446.7617" y1="716.3696" y2="716.3696"/><text fill="#000000" font-family="Verdana" font-size="13" lengthAdjust="spacing" textLength="164.5884" x="932.04" y="711.6401">load conversation history</text></g><g class="message" data-participant-1="UDB" data-participant-2="ORCH"><polygon fill="#000000" points="936.04,742.1689,926.04,746.1689,936.04,750.1689,932.04,746.1689" style="stroke:#000000;stroke-width:1;"/><line style="stroke:#000000;stroke-width:1;stroke-dasharray:2.0,2.0;" x1="930.04" x2="1451.7617" y1="746.1689" y2="746.1689"/><text fill="#000000" font-family="Verdana" font-size="13" lengthAdjust="spacing" textLength="99.582" x="942.04" y="741.4395">prior messages</text></g><g class="message" data-participant-1="ORCH" data-participant-2="LLM"><polygon fill="#000000" points="1247.5293,771.9683,1257.5293,775.9683,1247.5293,779.9683,1251.5293,775.9683" style="stroke:#000000;stroke-width:1;"/><line style="stroke:#000000;stroke-width:1;" x1="925.04" x2="1253.5293" y1="775.9683" y2="775.9683"/><text fill="#000000" font-family="Verdana" font-size="13" lengthAdjust="spacing" textLength="310.4893" x="932.04" y="771.2388">chat(history + augmented_message)  [stream]</text></g><g class="message" data-participant-1="LLM" data-participant-2="ORCH"><polygon fill="#000000" points="936.04,801.7676,926.04,805.7676,936.04,809.7676,932.04,805.7676" style="stroke:#000000;stroke-width:1;"/><line style="stroke:#000000;stroke-width:1;stroke-dasharray:2.0,2.0;" x1="930.04" x2="1258.5293" y1="805.7676" y2="805.7676"/><text fill="#000000" font-family="Verdana" font-size="13" lengthAdjust="spacing" textLength="109.5034" x="942.04" y="801.0381">streamed tokens</text></g><g class="message" data-participant-1="ORCH" data-participant-2="RH"><polygon fill="#000000" points="619.6582,831.5669,609.6582,835.5669,619.6582,839.5669,615.6582,835.5669" style="stroke:#000000;stroke-width:1;"/><line style="stroke:#000000;stroke-width:1;stroke-dasharray:2.0,2.0;" x1="613.6582" x2="924.04" y1="835.5669" y2="835.5669"/><text fill="#000000" font-family="Verdana" font-size="13" lengthAdjust="spacing" textLength="133.4277" x="625.6582" y="830.8374">response + citations</text></g><g class="message" data-participant-1="RH" data-participant-2="UDB"><polygon fill="#000000" points="1440.7617,861.3662,1450.7617,865.3662,1440.7617,869.3662,1444.7617,865.3662" style="stroke:#000000;stroke-width:1;"/><line style="stroke:#000000;stroke-width:1;" x1="608.6582" x2="1446.7617" y1="865.3662" y2="865.3662"/><text fill="#000000" font-family="Verdana" font-size="13" lengthAdjust="spacing" textLength="187.6494" x="615.6582" y="860.6367">persist(message + citations)</text></g><g class="message" data-participant-1="RH" data-participant-2="API"><polygon fill="#000000" points="479.4453,891.1655,469.4453,895.1655,479.4453,899.1655,475.4453,895.1655" style="stroke:#000000;stroke-width:1;"/><line style="stroke:#000000;stroke-width:1;stroke-dasharray:2.0,2.0;" x1="473.4453" x2="607.6582" y1="895.1655" y2="895.1655"/><text fill="#000000" font-family="Verdana" font-size="13" lengthAdjust="spacing" textLength="76.2036" x="485.4453" y="890.436">SSE stream</text></g><g class="message" data-participant-1="API" data-participant-2="UI"><polygon fill="#000000" points="276.5747,920.9648,266.5747,924.9648,276.5747,928.9648,272.5747,924.9648" style="stroke:#000000;stroke-width:1;"/><line style="stroke:#000000;stroke-width:1;stroke-dasharray:2.0,2.0;" x1="270.5747" x2="467.4453" y1="924.9648" y2="924.9648"/><text fill="#000000" font-family="Verdana" font-size="13" lengthAdjust="spacing" textLength="76.2036" x="282.5747" y="920.2354">SSE stream</text></g><g class="message" data-participant-1="UI" data-participant-2="USR"><polygon fill="#000000" points="54.9277,950.7642,44.9277,954.7642,54.9277,958.7642,50.9277,954.7642" style="stroke:#000000;stroke-width:1;"/><line style="stroke:#000000;stroke-width:1;stroke-dasharray:2.0,2.0;" x1="48.9277" x2="264.5747" y1="954.7642" y2="954.7642"/><text fill="#000000" font-family="Verdana" font-size="13" lengthAdjust="spacing" textLength="197.647" x="60.9277" y="950.0347">real-time response + citations</text></g><!--SRC=[RLHTRzf047pthzZo16fGgdwyv24I5A9GaH918AhI21td1KwSp_JkJCg_xzpPK3l9c-sPczsPtVC7l-MCQQ-5CedRARCNLcHasUrpu_YEdHCRxhFENthMvY_aRS4rekC_1Hjv8lQqsXZIlFP98gJFBRNcZcsBXAFvR9hWa5TIxONnr7ha5Sr79JPgGhtx4Ot5iJg9joOy3LMTfrjXKbsHfhUl9AH4JtIVQoMFaN4_6JSf4oktaB42ZKR6PFhzbSfuV4SpjeUg25wJL7Yn4ewfjU1eST2Fs6BGhs71Diq0SsaGO884g7iDitH5hbXbobDMvfRW6v1W-mfzpXxeKcw59shtMLWe-Np7ffC4mfbt45gX8DEFnuSJChq5CFpBil0gDrLEIOBF0140K7YMktQ1_Yv8vbh31AYT9A2Xkq4V99sBb6oksT57abeufzPAYi34U0-iay3hdaNtR3C54fQc53hrqXkF9uzqIJUZySDmYeV1yESlB8VsvHC5MlViwUkdBtIJsvLAKpO0ewrJPW0JraYt54NqfMebSXtd1nv7_zosOhECCRxaThV62dSIK2C9v31QSBCLfp6DPJMB3ZW1w_uNH2-EbuSuxhf41Jki373SWppbfXRHK__kyxSB12g5VguVNiIWjyULLUdIOSnosuw5a7YfsFbjdjwalrRQOo7KkZB_3Cb5DOkg7olCZbCCkZ0xzqw_ejXaR7oZqp3co6zaL5i6cHlS0bSsiLKEKHp1d3TBxwt2M2fDzpRkC8vsTHebgquuhGU66yaYUtuxXXA0itWRQkgdPJlzje8PvMEhxhmSfHSigaFvTitsYHcTDxPnDXjMHL-lOWEPLm2kT-X1wAvN-Ac-smsRz1y0]--></g></svg>